<?xml version="1.0" encoding="utf-8" standalone="no"?>
<!DOCTYPE svg PUBLIC "-//W3C//DTD SVG 1.1//EN"
  "http://www.w3.org/Graphics/SVG/1.1/DTD/svg11.dtd">
<!-- Created with matplotlib (https://matplotlib.org/) -->
<svg height="576pt" version="1.1" viewBox="0 0 720 576" width="720pt" xmlns="http://www.w3.org/2000/svg" xmlns:xlink="http://www.w3.org/1999/xlink">
 <defs>
  <style type="text/css">
*{stroke-linecap:butt;stroke-linejoin:round;}
  </style>
 </defs>
 <g id="figure_1">
  <g id="patch_1">
   <path d="M 0 576 
L 720 576 
L 720 0 
L 0 0 
z
" style="fill:#ffffff;"/>
  </g>
  <g id="axes_1">
   <g id="patch_2">
    <path d="M 90 504 
L 648 504 
L 648 69.12 
L 90 69.12 
z
" style="fill:#ffffff;"/>
   </g>
   <g id="LineCollection_1">
    <path clip-path="url(#p052106c363)" d="M 535.737171 294.014701 
L 552.063837 263.769349 
" style="fill:none;stroke:#808080;stroke-width:3;"/>
    <path clip-path="url(#p052106c363)" d="M 535.737171 294.014701 
L 522.679824 320.42333 
" style="fill:none;stroke:#808080;stroke-width:3;"/>
    <path clip-path="url(#p052106c363)" d="M 552.063837 263.769349 
L 533.765556 180.427325 
" style="fill:none;stroke:#808080;stroke-width:3;"/>
    <path clip-path="url(#p052106c363)" d="M 552.063837 263.769349 
L 549.410153 206.595772 
" style="fill:none;stroke:#808080;stroke-width:3;"/>
    <path clip-path="url(#p052106c363)" d="M 552.063837 263.769349 
L 613.442558 276.507836 
" style="fill:none;stroke:#808080;stroke-width:3;"/>
    <path clip-path="url(#p052106c363)" d="M 552.063837 263.769349 
L 590.64231 197.333407 
" style="fill:none;stroke:#808080;stroke-width:3;"/>
    <path clip-path="url(#p052106c363)" d="M 552.063837 263.769349 
L 577.831322 366.092418 
" style="fill:none;stroke:#808080;stroke-width:3;"/>
    <path clip-path="url(#p052106c363)" d="M 552.063837 263.769349 
L 552.063721 344.21887 
" style="fill:none;stroke:#808080;stroke-width:3;"/>
    <path clip-path="url(#p052106c363)" d="M 552.063837 263.769349 
L 514.348304 221.80342 
" style="fill:none;stroke:#808080;stroke-width:3;"/>
    <path clip-path="url(#p052106c363)" d="M 552.063837 263.769349 
L 496.317067 304.81699 
" style="fill:none;stroke:#808080;stroke-width:3;"/>
    <path clip-path="url(#p052106c363)" d="M 552.063837 263.769349 
L 580.652055 165.228307 
" style="fill:none;stroke:#808080;stroke-width:3;"/>
    <path clip-path="url(#p052106c363)" d="M 552.063837 263.769349 
L 603.153411 324.297732 
" style="fill:none;stroke:#808080;stroke-width:3;"/>
    <path clip-path="url(#p052106c363)" d="M 552.063837 263.769349 
L 617.660938 223.850973 
" style="fill:none;stroke:#808080;stroke-width:3;"/>
    <path clip-path="url(#p052106c363)" d="M 552.063837 263.769349 
L 493.459299 191.330766 
" style="fill:none;stroke:#808080;stroke-width:3;"/>
    <path clip-path="url(#p052106c363)" d="M 533.765556 180.427325 
L 549.410153 206.595772 
" style="fill:none;stroke:#808080;stroke-width:3;"/>
    <path clip-path="url(#p052106c363)" d="M 533.765556 180.427325 
L 524.482844 100.606971 
" style="fill:none;stroke:#808080;stroke-width:3;"/>
    <path clip-path="url(#p052106c363)" d="M 533.765556 180.427325 
L 514.348304 221.80342 
" style="fill:none;stroke:#808080;stroke-width:3;"/>
    <path clip-path="url(#p052106c363)" d="M 191.085531 472.513029 
L 183.13391 429.688731 
" style="fill:none;stroke:#808080;stroke-width:3;"/>
    <path clip-path="url(#p052106c363)" d="M 183.13391 429.688731 
L 165.224455 384.20758 
" style="fill:none;stroke:#808080;stroke-width:3;"/>
    <path clip-path="url(#p052106c363)" d="M 165.224455 384.20758 
L 150.086399 332.502065 
" style="fill:none;stroke:#808080;stroke-width:3;"/>
    <path clip-path="url(#p052106c363)" d="M 165.224455 384.20758 
L 183.057811 333.818333 
" style="fill:none;stroke:#808080;stroke-width:3;"/>
    <path clip-path="url(#p052106c363)" d="M 165.224455 384.20758 
L 120.339062 421.150143 
" style="fill:none;stroke:#808080;stroke-width:3;"/>
    <path clip-path="url(#p052106c363)" d="M 150.086399 332.502065 
L 134.697963 291.505903 
" style="fill:none;stroke:#808080;stroke-width:3;"/>
    <path clip-path="url(#p052106c363)" d="M 590.64231 197.333407 
L 580.652055 165.228307 
" style="fill:none;stroke:#808080;stroke-width:3;"/>
    <path clip-path="url(#p052106c363)" d="M 596.675872 440.427831 
L 577.831322 366.092418 
" style="fill:none;stroke:#808080;stroke-width:3;"/>
   </g>
   <g id="matplotlib.axis_1">
    <g id="xtick_1"/>
    <g id="xtick_2"/>
    <g id="xtick_3"/>
    <g id="xtick_4"/>
    <g id="xtick_5"/>
    <g id="xtick_6"/>
    <g id="xtick_7"/>
    <g id="xtick_8"/>
    <g id="xtick_9"/>
   </g>
   <g id="matplotlib.axis_2">
    <g id="ytick_1"/>
    <g id="ytick_2"/>
    <g id="ytick_3"/>
    <g id="ytick_4"/>
    <g id="ytick_5"/>
    <g id="ytick_6"/>
    <g id="ytick_7"/>
   </g>
   <g id="PathCollection_1">
    <defs>
     <path d="M 0 8.660254 
C 2.296726 8.660254 4.499694 7.747755 6.123724 6.123724 
C 7.747755 4.499694 8.660254 2.296726 8.660254 0 
C 8.660254 -2.296726 7.747755 -4.499694 6.123724 -6.123724 
C 4.499694 -7.747755 2.296726 -8.660254 0 -8.660254 
C -2.296726 -8.660254 -4.499694 -7.747755 -6.123724 -6.123724 
C -7.747755 -4.499694 -8.660254 -2.296726 -8.660254 0 
C -8.660254 2.296726 -7.747755 4.499694 -6.123724 6.123724 
C -4.499694 7.747755 -2.296726 8.660254 0 8.660254 
z
" id="m325b9e2955" style="stroke:#800080;"/>
    </defs>
    <g clip-path="url(#p052106c363)">
     <use style="fill:#800080;stroke:#800080;" x="535.737171" xlink:href="#m325b9e2955" y="294.014701"/>
     <use style="fill:#800080;stroke:#800080;" x="552.063837" xlink:href="#m325b9e2955" y="263.769349"/>
     <use style="fill:#800080;stroke:#800080;" x="522.679824" xlink:href="#m325b9e2955" y="320.42333"/>
     <use style="fill:#800080;stroke:#800080;" x="533.765556" xlink:href="#m325b9e2955" y="180.427325"/>
     <use style="fill:#800080;stroke:#800080;" x="191.085531" xlink:href="#m325b9e2955" y="472.513029"/>
     <use style="fill:#800080;stroke:#800080;" x="183.13391" xlink:href="#m325b9e2955" y="429.688731"/>
     <use style="fill:#800080;stroke:#800080;" x="165.224455" xlink:href="#m325b9e2955" y="384.20758"/>
     <use style="fill:#800080;stroke:#800080;" x="150.086399" xlink:href="#m325b9e2955" y="332.502065"/>
     <use style="fill:#800080;stroke:#800080;" x="134.697963" xlink:href="#m325b9e2955" y="291.505903"/>
     <use style="fill:#800080;stroke:#800080;" x="549.410153" xlink:href="#m325b9e2955" y="206.595772"/>
     <use style="fill:#800080;stroke:#800080;" x="613.442558" xlink:href="#m325b9e2955" y="276.507836"/>
     <use style="fill:#800080;stroke:#800080;" x="590.64231" xlink:href="#m325b9e2955" y="197.333407"/>
     <use style="fill:#800080;stroke:#800080;" x="524.482844" xlink:href="#m325b9e2955" y="100.606971"/>
     <use style="fill:#800080;stroke:#800080;" x="596.675872" xlink:href="#m325b9e2955" y="440.427831"/>
     <use style="fill:#800080;stroke:#800080;" x="577.831322" xlink:href="#m325b9e2955" y="366.092418"/>
     <use style="fill:#800080;stroke:#800080;" x="552.063721" xlink:href="#m325b9e2955" y="344.21887"/>
     <use style="fill:#800080;stroke:#800080;" x="580.652055" xlink:href="#m325b9e2955" y="165.228307"/>
     <use style="fill:#800080;stroke:#800080;" x="183.057811" xlink:href="#m325b9e2955" y="333.818333"/>
     <use style="fill:#800080;stroke:#800080;" x="514.348304" xlink:href="#m325b9e2955" y="221.80342"/>
     <use style="fill:#800080;stroke:#800080;" x="496.317067" xlink:href="#m325b9e2955" y="304.81699"/>
     <use style="fill:#800080;stroke:#800080;" x="120.339062" xlink:href="#m325b9e2955" y="421.150143"/>
     <use style="fill:#800080;stroke:#800080;" x="603.153411" xlink:href="#m325b9e2955" y="324.297732"/>
     <use style="fill:#800080;stroke:#800080;" x="617.660938" xlink:href="#m325b9e2955" y="223.850973"/>
     <use style="fill:#800080;stroke:#800080;" x="493.459299" xlink:href="#m325b9e2955" y="191.330766"/>
    </g>
   </g>
   <g id="patch_3">
    <path d="M 90 504 
L 90 69.12 
" style="fill:none;stroke:#000000;stroke-linecap:square;stroke-linejoin:miter;stroke-width:0.8;"/>
   </g>
   <g id="patch_4">
    <path d="M 648 504 
L 648 69.12 
" style="fill:none;stroke:#000000;stroke-linecap:square;stroke-linejoin:miter;stroke-width:0.8;"/>
   </g>
   <g id="patch_5">
    <path d="M 90 504 
L 648 504 
" style="fill:none;stroke:#000000;stroke-linecap:square;stroke-linejoin:miter;stroke-width:0.8;"/>
   </g>
   <g id="patch_6">
    <path d="M 90 69.12 
L 648 69.12 
" style="fill:none;stroke:#000000;stroke-linecap:square;stroke-linejoin:miter;stroke-width:0.8;"/>
   </g>
   <g id="text_1">
    <g id="patch_7">
     <path d="M 568.927087 273.195415 
L 589.103337 273.195415 
L 589.103337 257.452915 
L 568.927087 257.452915 
z
" style="fill:#ff0000;opacity:0.25;stroke:#000000;stroke-linejoin:miter;"/>
    </g>
    <!-- #V -->
    <defs>
     <path d="M 51.125 44 
L 36.921875 44 
L 32.8125 27.6875 
L 47.125 27.6875 
z
M 43.796875 71.78125 
L 38.71875 51.515625 
L 52.984375 51.515625 
L 58.109375 71.78125 
L 65.921875 71.78125 
L 60.890625 51.515625 
L 76.125 51.515625 
L 76.125 44 
L 58.984375 44 
L 54.984375 27.6875 
L 70.515625 27.6875 
L 70.515625 20.21875 
L 53.078125 20.21875 
L 48 0 
L 40.1875 0 
L 45.21875 20.21875 
L 30.90625 20.21875 
L 25.875 0 
L 18.015625 0 
L 23.09375 20.21875 
L 7.71875 20.21875 
L 7.71875 27.6875 
L 24.90625 27.6875 
L 29 44 
L 13.28125 44 
L 13.28125 51.515625 
L 30.90625 51.515625 
L 35.890625 71.78125 
z
" id="DejaVuSans-35"/>
     <path d="M 28.609375 0 
L 0.78125 72.90625 
L 11.078125 72.90625 
L 34.1875 11.53125 
L 57.328125 72.90625 
L 67.578125 72.90625 
L 39.796875 0 
z
" id="DejaVuSans-86"/>
    </defs>
    <g transform="translate(572.927087 267.531665)scale(0.08 -0.08)">
     <use xlink:href="#DejaVuSans-35"/>
     <use x="83.789062" xlink:href="#DejaVuSans-86"/>
    </g>
   </g>
   <g id="text_2">
    <g id="patch_8">
     <path d="M 562.946877 242.950063 
L 627.736877 242.950063 
L 627.736877 227.207563 
L 562.946877 227.207563 
z
" style="fill:#ff0000;opacity:0.25;stroke:#000000;stroke-linejoin:miter;"/>
    </g>
    <!-- #StayAtHome -->
    <defs>
     <path d="M 53.515625 70.515625 
L 53.515625 60.890625 
Q 47.90625 63.578125 42.921875 64.890625 
Q 37.9375 66.21875 33.296875 66.21875 
Q 25.25 66.21875 20.875 63.09375 
Q 16.5 59.96875 16.5 54.203125 
Q 16.5 49.359375 19.40625 46.890625 
Q 22.3125 44.4375 30.421875 42.921875 
L 36.375 41.703125 
Q 47.40625 39.59375 52.65625 34.296875 
Q 57.90625 29 57.90625 20.125 
Q 57.90625 9.515625 50.796875 4.046875 
Q 43.703125 -1.421875 29.984375 -1.421875 
Q 24.8125 -1.421875 18.96875 -0.25 
Q 13.140625 0.921875 6.890625 3.21875 
L 6.890625 13.375 
Q 12.890625 10.015625 18.65625 8.296875 
Q 24.421875 6.59375 29.984375 6.59375 
Q 38.421875 6.59375 43.015625 9.90625 
Q 47.609375 13.234375 47.609375 19.390625 
Q 47.609375 24.75 44.3125 27.78125 
Q 41.015625 30.8125 33.5 32.328125 
L 27.484375 33.5 
Q 16.453125 35.6875 11.515625 40.375 
Q 6.59375 45.0625 6.59375 53.421875 
Q 6.59375 63.09375 13.40625 68.65625 
Q 20.21875 74.21875 32.171875 74.21875 
Q 37.3125 74.21875 42.625 73.28125 
Q 47.953125 72.359375 53.515625 70.515625 
z
" id="DejaVuSans-83"/>
     <path d="M 18.3125 70.21875 
L 18.3125 54.6875 
L 36.8125 54.6875 
L 36.8125 47.703125 
L 18.3125 47.703125 
L 18.3125 18.015625 
Q 18.3125 11.328125 20.140625 9.421875 
Q 21.96875 7.515625 27.59375 7.515625 
L 36.8125 7.515625 
L 36.8125 0 
L 27.59375 0 
Q 17.1875 0 13.234375 3.875 
Q 9.28125 7.765625 9.28125 18.015625 
L 9.28125 47.703125 
L 2.6875 47.703125 
L 2.6875 54.6875 
L 9.28125 54.6875 
L 9.28125 70.21875 
z
" id="DejaVuSans-116"/>
     <path d="M 34.28125 27.484375 
Q 23.390625 27.484375 19.1875 25 
Q 14.984375 22.515625 14.984375 16.5 
Q 14.984375 11.71875 18.140625 8.90625 
Q 21.296875 6.109375 26.703125 6.109375 
Q 34.1875 6.109375 38.703125 11.40625 
Q 43.21875 16.703125 43.21875 25.484375 
L 43.21875 27.484375 
z
M 52.203125 31.203125 
L 52.203125 0 
L 43.21875 0 
L 43.21875 8.296875 
Q 40.140625 3.328125 35.546875 0.953125 
Q 30.953125 -1.421875 24.3125 -1.421875 
Q 15.921875 -1.421875 10.953125 3.296875 
Q 6 8.015625 6 15.921875 
Q 6 25.140625 12.171875 29.828125 
Q 18.359375 34.515625 30.609375 34.515625 
L 43.21875 34.515625 
L 43.21875 35.40625 
Q 43.21875 41.609375 39.140625 45 
Q 35.0625 48.390625 27.6875 48.390625 
Q 23 48.390625 18.546875 47.265625 
Q 14.109375 46.140625 10.015625 43.890625 
L 10.015625 52.203125 
Q 14.9375 54.109375 19.578125 55.046875 
Q 24.21875 56 28.609375 56 
Q 40.484375 56 46.34375 49.84375 
Q 52.203125 43.703125 52.203125 31.203125 
z
" id="DejaVuSans-97"/>
     <path d="M 32.171875 -5.078125 
Q 28.375 -14.84375 24.75 -17.8125 
Q 21.140625 -20.796875 15.09375 -20.796875 
L 7.90625 -20.796875 
L 7.90625 -13.28125 
L 13.1875 -13.28125 
Q 16.890625 -13.28125 18.9375 -11.515625 
Q 21 -9.765625 23.484375 -3.21875 
L 25.09375 0.875 
L 2.984375 54.6875 
L 12.5 54.6875 
L 29.59375 11.921875 
L 46.6875 54.6875 
L 56.203125 54.6875 
z
" id="DejaVuSans-121"/>
     <path d="M 34.1875 63.1875 
L 20.796875 26.90625 
L 47.609375 26.90625 
z
M 28.609375 72.90625 
L 39.796875 72.90625 
L 67.578125 0 
L 57.328125 0 
L 50.6875 18.703125 
L 17.828125 18.703125 
L 11.1875 0 
L 0.78125 0 
z
" id="DejaVuSans-65"/>
     <path d="M 9.8125 72.90625 
L 19.671875 72.90625 
L 19.671875 43.015625 
L 55.515625 43.015625 
L 55.515625 72.90625 
L 65.375 72.90625 
L 65.375 0 
L 55.515625 0 
L 55.515625 34.71875 
L 19.671875 34.71875 
L 19.671875 0 
L 9.8125 0 
z
" id="DejaVuSans-72"/>
     <path d="M 30.609375 48.390625 
Q 23.390625 48.390625 19.1875 42.75 
Q 14.984375 37.109375 14.984375 27.296875 
Q 14.984375 17.484375 19.15625 11.84375 
Q 23.34375 6.203125 30.609375 6.203125 
Q 37.796875 6.203125 41.984375 11.859375 
Q 46.1875 17.53125 46.1875 27.296875 
Q 46.1875 37.015625 41.984375 42.703125 
Q 37.796875 48.390625 30.609375 48.390625 
z
M 30.609375 56 
Q 42.328125 56 49.015625 48.375 
Q 55.71875 40.765625 55.71875 27.296875 
Q 55.71875 13.875 49.015625 6.21875 
Q 42.328125 -1.421875 30.609375 -1.421875 
Q 18.84375 -1.421875 12.171875 6.21875 
Q 5.515625 13.875 5.515625 27.296875 
Q 5.515625 40.765625 12.171875 48.375 
Q 18.84375 56 30.609375 56 
z
" id="DejaVuSans-111"/>
     <path d="M 52 44.1875 
Q 55.375 50.25 60.0625 53.125 
Q 64.75 56 71.09375 56 
Q 79.640625 56 84.28125 50.015625 
Q 88.921875 44.046875 88.921875 33.015625 
L 88.921875 0 
L 79.890625 0 
L 79.890625 32.71875 
Q 79.890625 40.578125 77.09375 44.375 
Q 74.3125 48.1875 68.609375 48.1875 
Q 61.625 48.1875 57.5625 43.546875 
Q 53.515625 38.921875 53.515625 30.90625 
L 53.515625 0 
L 44.484375 0 
L 44.484375 32.71875 
Q 44.484375 40.625 41.703125 44.40625 
Q 38.921875 48.1875 33.109375 48.1875 
Q 26.21875 48.1875 22.15625 43.53125 
Q 18.109375 38.875 18.109375 30.90625 
L 18.109375 0 
L 9.078125 0 
L 9.078125 54.6875 
L 18.109375 54.6875 
L 18.109375 46.1875 
Q 21.1875 51.21875 25.484375 53.609375 
Q 29.78125 56 35.6875 56 
Q 41.65625 56 45.828125 52.96875 
Q 50 49.953125 52 44.1875 
z
" id="DejaVuSans-109"/>
     <path d="M 56.203125 29.59375 
L 56.203125 25.203125 
L 14.890625 25.203125 
Q 15.484375 15.921875 20.484375 11.0625 
Q 25.484375 6.203125 34.421875 6.203125 
Q 39.59375 6.203125 44.453125 7.46875 
Q 49.3125 8.734375 54.109375 11.28125 
L 54.109375 2.78125 
Q 49.265625 0.734375 44.1875 -0.34375 
Q 39.109375 -1.421875 33.890625 -1.421875 
Q 20.796875 -1.421875 13.15625 6.1875 
Q 5.515625 13.8125 5.515625 26.8125 
Q 5.515625 40.234375 12.765625 48.109375 
Q 20.015625 56 32.328125 56 
Q 43.359375 56 49.78125 48.890625 
Q 56.203125 41.796875 56.203125 29.59375 
z
M 47.21875 32.234375 
Q 47.125 39.59375 43.09375 43.984375 
Q 39.0625 48.390625 32.421875 48.390625 
Q 24.90625 48.390625 20.390625 44.140625 
Q 15.875 39.890625 15.1875 32.171875 
z
" id="DejaVuSans-101"/>
    </defs>
    <g transform="translate(566.946877 237.286313)scale(0.08 -0.08)">
     <use xlink:href="#DejaVuSans-35"/>
     <use x="83.789062" xlink:href="#DejaVuSans-83"/>
     <use x="147.265625" xlink:href="#DejaVuSans-116"/>
     <use x="186.474609" xlink:href="#DejaVuSans-97"/>
     <use x="247.753906" xlink:href="#DejaVuSans-121"/>
     <use x="306.933594" xlink:href="#DejaVuSans-65"/>
     <use x="375.326172" xlink:href="#DejaVuSans-116"/>
     <use x="414.535156" xlink:href="#DejaVuSans-72"/>
     <use x="489.730469" xlink:href="#DejaVuSans-111"/>
     <use x="550.912109" xlink:href="#DejaVuSans-109"/>
     <use x="648.324219" xlink:href="#DejaVuSans-101"/>
    </g>
   </g>
   <g id="text_3">
    <g id="patch_9">
     <path d="M 550.879114 299.604044 
L 581.036614 299.604044 
L 581.036614 283.861544 
L 550.879114 283.861544 
z
" style="fill:#ff0000;opacity:0.25;stroke:#000000;stroke-linejoin:miter;"/>
    </g>
    <!-- #BTS -->
    <defs>
     <path d="M 19.671875 34.8125 
L 19.671875 8.109375 
L 35.5 8.109375 
Q 43.453125 8.109375 47.28125 11.40625 
Q 51.125 14.703125 51.125 21.484375 
Q 51.125 28.328125 47.28125 31.5625 
Q 43.453125 34.8125 35.5 34.8125 
z
M 19.671875 64.796875 
L 19.671875 42.828125 
L 34.28125 42.828125 
Q 41.5 42.828125 45.03125 45.53125 
Q 48.578125 48.25 48.578125 53.8125 
Q 48.578125 59.328125 45.03125 62.0625 
Q 41.5 64.796875 34.28125 64.796875 
z
M 9.8125 72.90625 
L 35.015625 72.90625 
Q 46.296875 72.90625 52.390625 68.21875 
Q 58.5 63.53125 58.5 54.890625 
Q 58.5 48.1875 55.375 44.234375 
Q 52.25 40.28125 46.1875 39.3125 
Q 53.46875 37.75 57.5 32.78125 
Q 61.53125 27.828125 61.53125 20.40625 
Q 61.53125 10.640625 54.890625 5.3125 
Q 48.25 0 35.984375 0 
L 9.8125 0 
z
" id="DejaVuSans-66"/>
     <path d="M -0.296875 72.90625 
L 61.375 72.90625 
L 61.375 64.59375 
L 35.5 64.59375 
L 35.5 0 
L 25.59375 0 
L 25.59375 64.59375 
L -0.296875 64.59375 
z
" id="DejaVuSans-84"/>
    </defs>
    <g transform="translate(554.879114 293.940294)scale(0.08 -0.08)">
     <use xlink:href="#DejaVuSans-35"/>
     <use x="83.789062" xlink:href="#DejaVuSans-66"/>
     <use x="152.392578" xlink:href="#DejaVuSans-84"/>
     <use x="213.476562" xlink:href="#DejaVuSans-83"/>
    </g>
   </g>
   <g id="text_4">
    <g id="patch_10">
     <path d="M 551.664221 159.60804 
L 602.422971 159.60804 
L 602.422971 143.86554 
L 551.664221 143.86554 
z
" style="fill:#ff0000;opacity:0.25;stroke:#000000;stroke-linejoin:miter;"/>
    </g>
    <!-- #COVID19 -->
    <defs>
     <path d="M 64.40625 67.28125 
L 64.40625 56.890625 
Q 59.421875 61.53125 53.78125 63.8125 
Q 48.140625 66.109375 41.796875 66.109375 
Q 29.296875 66.109375 22.65625 58.46875 
Q 16.015625 50.828125 16.015625 36.375 
Q 16.015625 21.96875 22.65625 14.328125 
Q 29.296875 6.6875 41.796875 6.6875 
Q 48.140625 6.6875 53.78125 8.984375 
Q 59.421875 11.28125 64.40625 15.921875 
L 64.40625 5.609375 
Q 59.234375 2.09375 53.4375 0.328125 
Q 47.65625 -1.421875 41.21875 -1.421875 
Q 24.65625 -1.421875 15.125 8.703125 
Q 5.609375 18.84375 5.609375 36.375 
Q 5.609375 53.953125 15.125 64.078125 
Q 24.65625 74.21875 41.21875 74.21875 
Q 47.75 74.21875 53.53125 72.484375 
Q 59.328125 70.75 64.40625 67.28125 
z
" id="DejaVuSans-67"/>
     <path d="M 39.40625 66.21875 
Q 28.65625 66.21875 22.328125 58.203125 
Q 16.015625 50.203125 16.015625 36.375 
Q 16.015625 22.609375 22.328125 14.59375 
Q 28.65625 6.59375 39.40625 6.59375 
Q 50.140625 6.59375 56.421875 14.59375 
Q 62.703125 22.609375 62.703125 36.375 
Q 62.703125 50.203125 56.421875 58.203125 
Q 50.140625 66.21875 39.40625 66.21875 
z
M 39.40625 74.21875 
Q 54.734375 74.21875 63.90625 63.9375 
Q 73.09375 53.65625 73.09375 36.375 
Q 73.09375 19.140625 63.90625 8.859375 
Q 54.734375 -1.421875 39.40625 -1.421875 
Q 24.03125 -1.421875 14.8125 8.828125 
Q 5.609375 19.09375 5.609375 36.375 
Q 5.609375 53.65625 14.8125 63.9375 
Q 24.03125 74.21875 39.40625 74.21875 
z
" id="DejaVuSans-79"/>
     <path d="M 9.8125 72.90625 
L 19.671875 72.90625 
L 19.671875 0 
L 9.8125 0 
z
" id="DejaVuSans-73"/>
     <path d="M 19.671875 64.796875 
L 19.671875 8.109375 
L 31.59375 8.109375 
Q 46.6875 8.109375 53.6875 14.9375 
Q 60.6875 21.78125 60.6875 36.53125 
Q 60.6875 51.171875 53.6875 57.984375 
Q 46.6875 64.796875 31.59375 64.796875 
z
M 9.8125 72.90625 
L 30.078125 72.90625 
Q 51.265625 72.90625 61.171875 64.09375 
Q 71.09375 55.28125 71.09375 36.53125 
Q 71.09375 17.671875 61.125 8.828125 
Q 51.171875 0 30.078125 0 
L 9.8125 0 
z
" id="DejaVuSans-68"/>
     <path d="M 12.40625 8.296875 
L 28.515625 8.296875 
L 28.515625 63.921875 
L 10.984375 60.40625 
L 10.984375 69.390625 
L 28.421875 72.90625 
L 38.28125 72.90625 
L 38.28125 8.296875 
L 54.390625 8.296875 
L 54.390625 0 
L 12.40625 0 
z
" id="DejaVuSans-49"/>
     <path d="M 10.984375 1.515625 
L 10.984375 10.5 
Q 14.703125 8.734375 18.5 7.8125 
Q 22.3125 6.890625 25.984375 6.890625 
Q 35.75 6.890625 40.890625 13.453125 
Q 46.046875 20.015625 46.78125 33.40625 
Q 43.953125 29.203125 39.59375 26.953125 
Q 35.25 24.703125 29.984375 24.703125 
Q 19.046875 24.703125 12.671875 31.3125 
Q 6.296875 37.9375 6.296875 49.421875 
Q 6.296875 60.640625 12.9375 67.421875 
Q 19.578125 74.21875 30.609375 74.21875 
Q 43.265625 74.21875 49.921875 64.515625 
Q 56.59375 54.828125 56.59375 36.375 
Q 56.59375 19.140625 48.40625 8.859375 
Q 40.234375 -1.421875 26.421875 -1.421875 
Q 22.703125 -1.421875 18.890625 -0.6875 
Q 15.09375 0.046875 10.984375 1.515625 
z
M 30.609375 32.421875 
Q 37.25 32.421875 41.125 36.953125 
Q 45.015625 41.5 45.015625 49.421875 
Q 45.015625 57.28125 41.125 61.84375 
Q 37.25 66.40625 30.609375 66.40625 
Q 23.96875 66.40625 20.09375 61.84375 
Q 16.21875 57.28125 16.21875 49.421875 
Q 16.21875 41.5 20.09375 36.953125 
Q 23.96875 32.421875 30.609375 32.421875 
z
" id="DejaVuSans-57"/>
    </defs>
    <g transform="translate(555.664221 153.94429)scale(0.08 -0.08)">
     <use xlink:href="#DejaVuSans-35"/>
     <use x="83.789062" xlink:href="#DejaVuSans-67"/>
     <use x="153.613281" xlink:href="#DejaVuSans-79"/>
     <use x="232.308594" xlink:href="#DejaVuSans-86"/>
     <use x="300.716797" xlink:href="#DejaVuSans-73"/>
     <use x="330.208984" xlink:href="#DejaVuSans-68"/>
     <use x="407.210938" xlink:href="#DejaVuSans-49"/>
     <use x="470.833984" xlink:href="#DejaVuSans-57"/>
    </g>
   </g>
   <g id="text_5">
    <g id="patch_11">
     <path d="M 208.845446 451.693743 
L 259.881696 451.693743 
L 259.881696 435.951243 
L 208.845446 435.951243 
z
" style="fill:#ff0000;opacity:0.25;stroke:#000000;stroke-linejoin:miter;"/>
    </g>
    <!-- #cashgem -->
    <defs>
     <path d="M 48.78125 52.59375 
L 48.78125 44.1875 
Q 44.96875 46.296875 41.140625 47.34375 
Q 37.3125 48.390625 33.40625 48.390625 
Q 24.65625 48.390625 19.8125 42.84375 
Q 14.984375 37.3125 14.984375 27.296875 
Q 14.984375 17.28125 19.8125 11.734375 
Q 24.65625 6.203125 33.40625 6.203125 
Q 37.3125 6.203125 41.140625 7.25 
Q 44.96875 8.296875 48.78125 10.40625 
L 48.78125 2.09375 
Q 45.015625 0.34375 40.984375 -0.53125 
Q 36.96875 -1.421875 32.421875 -1.421875 
Q 20.0625 -1.421875 12.78125 6.34375 
Q 5.515625 14.109375 5.515625 27.296875 
Q 5.515625 40.671875 12.859375 48.328125 
Q 20.21875 56 33.015625 56 
Q 37.15625 56 41.109375 55.140625 
Q 45.0625 54.296875 48.78125 52.59375 
z
" id="DejaVuSans-99"/>
     <path d="M 44.28125 53.078125 
L 44.28125 44.578125 
Q 40.484375 46.53125 36.375 47.5 
Q 32.28125 48.484375 27.875 48.484375 
Q 21.1875 48.484375 17.84375 46.4375 
Q 14.5 44.390625 14.5 40.28125 
Q 14.5 37.15625 16.890625 35.375 
Q 19.28125 33.59375 26.515625 31.984375 
L 29.59375 31.296875 
Q 39.15625 29.25 43.1875 25.515625 
Q 47.21875 21.78125 47.21875 15.09375 
Q 47.21875 7.46875 41.1875 3.015625 
Q 35.15625 -1.421875 24.609375 -1.421875 
Q 20.21875 -1.421875 15.453125 -0.5625 
Q 10.6875 0.296875 5.421875 2 
L 5.421875 11.28125 
Q 10.40625 8.6875 15.234375 7.390625 
Q 20.0625 6.109375 24.8125 6.109375 
Q 31.15625 6.109375 34.5625 8.28125 
Q 37.984375 10.453125 37.984375 14.40625 
Q 37.984375 18.0625 35.515625 20.015625 
Q 33.0625 21.96875 24.703125 23.78125 
L 21.578125 24.515625 
Q 13.234375 26.265625 9.515625 29.90625 
Q 5.8125 33.546875 5.8125 39.890625 
Q 5.8125 47.609375 11.28125 51.796875 
Q 16.75 56 26.8125 56 
Q 31.78125 56 36.171875 55.265625 
Q 40.578125 54.546875 44.28125 53.078125 
z
" id="DejaVuSans-115"/>
     <path d="M 54.890625 33.015625 
L 54.890625 0 
L 45.90625 0 
L 45.90625 32.71875 
Q 45.90625 40.484375 42.875 44.328125 
Q 39.84375 48.1875 33.796875 48.1875 
Q 26.515625 48.1875 22.3125 43.546875 
Q 18.109375 38.921875 18.109375 30.90625 
L 18.109375 0 
L 9.078125 0 
L 9.078125 75.984375 
L 18.109375 75.984375 
L 18.109375 46.1875 
Q 21.34375 51.125 25.703125 53.5625 
Q 30.078125 56 35.796875 56 
Q 45.21875 56 50.046875 50.171875 
Q 54.890625 44.34375 54.890625 33.015625 
z
" id="DejaVuSans-104"/>
     <path d="M 45.40625 27.984375 
Q 45.40625 37.75 41.375 43.109375 
Q 37.359375 48.484375 30.078125 48.484375 
Q 22.859375 48.484375 18.828125 43.109375 
Q 14.796875 37.75 14.796875 27.984375 
Q 14.796875 18.265625 18.828125 12.890625 
Q 22.859375 7.515625 30.078125 7.515625 
Q 37.359375 7.515625 41.375 12.890625 
Q 45.40625 18.265625 45.40625 27.984375 
z
M 54.390625 6.78125 
Q 54.390625 -7.171875 48.1875 -13.984375 
Q 42 -20.796875 29.203125 -20.796875 
Q 24.46875 -20.796875 20.265625 -20.09375 
Q 16.0625 -19.390625 12.109375 -17.921875 
L 12.109375 -9.1875 
Q 16.0625 -11.328125 19.921875 -12.34375 
Q 23.78125 -13.375 27.78125 -13.375 
Q 36.625 -13.375 41.015625 -8.765625 
Q 45.40625 -4.15625 45.40625 5.171875 
L 45.40625 9.625 
Q 42.625 4.78125 38.28125 2.390625 
Q 33.9375 0 27.875 0 
Q 17.828125 0 11.671875 7.65625 
Q 5.515625 15.328125 5.515625 27.984375 
Q 5.515625 40.671875 11.671875 48.328125 
Q 17.828125 56 27.875 56 
Q 33.9375 56 38.28125 53.609375 
Q 42.625 51.21875 45.40625 46.390625 
L 45.40625 54.6875 
L 54.390625 54.6875 
z
" id="DejaVuSans-103"/>
    </defs>
    <g transform="translate(212.845446 446.029993)scale(0.08 -0.08)">
     <use xlink:href="#DejaVuSans-35"/>
     <use x="83.789062" xlink:href="#DejaVuSans-99"/>
     <use x="138.769531" xlink:href="#DejaVuSans-97"/>
     <use x="200.048828" xlink:href="#DejaVuSans-115"/>
     <use x="252.148438" xlink:href="#DejaVuSans-104"/>
     <use x="315.527344" xlink:href="#DejaVuSans-103"/>
     <use x="379.003906" xlink:href="#DejaVuSans-101"/>
     <use x="440.527344" xlink:href="#DejaVuSans-109"/>
    </g>
   </g>
   <g id="text_6">
    <g id="patch_12">
     <path d="M 190.738826 408.869445 
L 262.085076 408.869445 
L 262.085076 393.126945 
L 190.738826 393.126945 
z
" style="fill:#ff0000;opacity:0.25;stroke:#000000;stroke-linejoin:miter;"/>
    </g>
    <!-- #cashappfriday -->
    <defs>
     <path d="M 18.109375 8.203125 
L 18.109375 -20.796875 
L 9.078125 -20.796875 
L 9.078125 54.6875 
L 18.109375 54.6875 
L 18.109375 46.390625 
Q 20.953125 51.265625 25.265625 53.625 
Q 29.59375 56 35.59375 56 
Q 45.5625 56 51.78125 48.09375 
Q 58.015625 40.1875 58.015625 27.296875 
Q 58.015625 14.40625 51.78125 6.484375 
Q 45.5625 -1.421875 35.59375 -1.421875 
Q 29.59375 -1.421875 25.265625 0.953125 
Q 20.953125 3.328125 18.109375 8.203125 
z
M 48.6875 27.296875 
Q 48.6875 37.203125 44.609375 42.84375 
Q 40.53125 48.484375 33.40625 48.484375 
Q 26.265625 48.484375 22.1875 42.84375 
Q 18.109375 37.203125 18.109375 27.296875 
Q 18.109375 17.390625 22.1875 11.75 
Q 26.265625 6.109375 33.40625 6.109375 
Q 40.53125 6.109375 44.609375 11.75 
Q 48.6875 17.390625 48.6875 27.296875 
z
" id="DejaVuSans-112"/>
     <path d="M 37.109375 75.984375 
L 37.109375 68.5 
L 28.515625 68.5 
Q 23.6875 68.5 21.796875 66.546875 
Q 19.921875 64.59375 19.921875 59.515625 
L 19.921875 54.6875 
L 34.71875 54.6875 
L 34.71875 47.703125 
L 19.921875 47.703125 
L 19.921875 0 
L 10.890625 0 
L 10.890625 47.703125 
L 2.296875 47.703125 
L 2.296875 54.6875 
L 10.890625 54.6875 
L 10.890625 58.5 
Q 10.890625 67.625 15.140625 71.796875 
Q 19.390625 75.984375 28.609375 75.984375 
z
" id="DejaVuSans-102"/>
     <path d="M 41.109375 46.296875 
Q 39.59375 47.171875 37.8125 47.578125 
Q 36.03125 48 33.890625 48 
Q 26.265625 48 22.1875 43.046875 
Q 18.109375 38.09375 18.109375 28.8125 
L 18.109375 0 
L 9.078125 0 
L 9.078125 54.6875 
L 18.109375 54.6875 
L 18.109375 46.1875 
Q 20.953125 51.171875 25.484375 53.578125 
Q 30.03125 56 36.53125 56 
Q 37.453125 56 38.578125 55.875 
Q 39.703125 55.765625 41.0625 55.515625 
z
" id="DejaVuSans-114"/>
     <path d="M 9.421875 54.6875 
L 18.40625 54.6875 
L 18.40625 0 
L 9.421875 0 
z
M 9.421875 75.984375 
L 18.40625 75.984375 
L 18.40625 64.59375 
L 9.421875 64.59375 
z
" id="DejaVuSans-105"/>
     <path d="M 45.40625 46.390625 
L 45.40625 75.984375 
L 54.390625 75.984375 
L 54.390625 0 
L 45.40625 0 
L 45.40625 8.203125 
Q 42.578125 3.328125 38.25 0.953125 
Q 33.9375 -1.421875 27.875 -1.421875 
Q 17.96875 -1.421875 11.734375 6.484375 
Q 5.515625 14.40625 5.515625 27.296875 
Q 5.515625 40.1875 11.734375 48.09375 
Q 17.96875 56 27.875 56 
Q 33.9375 56 38.25 53.625 
Q 42.578125 51.265625 45.40625 46.390625 
z
M 14.796875 27.296875 
Q 14.796875 17.390625 18.875 11.75 
Q 22.953125 6.109375 30.078125 6.109375 
Q 37.203125 6.109375 41.296875 11.75 
Q 45.40625 17.390625 45.40625 27.296875 
Q 45.40625 37.203125 41.296875 42.84375 
Q 37.203125 48.484375 30.078125 48.484375 
Q 22.953125 48.484375 18.875 42.84375 
Q 14.796875 37.203125 14.796875 27.296875 
z
" id="DejaVuSans-100"/>
    </defs>
    <g transform="translate(194.738826 403.205695)scale(0.08 -0.08)">
     <use xlink:href="#DejaVuSans-35"/>
     <use x="83.789062" xlink:href="#DejaVuSans-99"/>
     <use x="138.769531" xlink:href="#DejaVuSans-97"/>
     <use x="200.048828" xlink:href="#DejaVuSans-115"/>
     <use x="252.148438" xlink:href="#DejaVuSans-104"/>
     <use x="315.527344" xlink:href="#DejaVuSans-97"/>
     <use x="376.806641" xlink:href="#DejaVuSans-112"/>
     <use x="440.283203" xlink:href="#DejaVuSans-112"/>
     <use x="503.759766" xlink:href="#DejaVuSans-102"/>
     <use x="538.964844" xlink:href="#DejaVuSans-114"/>
     <use x="580.078125" xlink:href="#DejaVuSans-105"/>
     <use x="607.861328" xlink:href="#DejaVuSans-100"/>
     <use x="671.337891" xlink:href="#DejaVuSans-97"/>
     <use x="732.617188" xlink:href="#DejaVuSans-121"/>
    </g>
   </g>
   <g id="text_7">
    <g id="patch_13">
     <path d="M 177.320621 363.388294 
L 239.684371 363.388294 
L 239.684371 347.645794 
L 177.320621 347.645794 
z
" style="fill:#ff0000;opacity:0.25;stroke:#000000;stroke-linejoin:miter;"/>
    </g>
    <!-- #stayathome -->
    <g transform="translate(181.320621 357.724544)scale(0.08 -0.08)">
     <use xlink:href="#DejaVuSans-35"/>
     <use x="83.789062" xlink:href="#DejaVuSans-115"/>
     <use x="135.888672" xlink:href="#DejaVuSans-116"/>
     <use x="175.097656" xlink:href="#DejaVuSans-97"/>
     <use x="236.376953" xlink:href="#DejaVuSans-121"/>
     <use x="295.556641" xlink:href="#DejaVuSans-97"/>
     <use x="356.835938" xlink:href="#DejaVuSans-116"/>
     <use x="396.044922" xlink:href="#DejaVuSans-104"/>
     <use x="459.423828" xlink:href="#DejaVuSans-111"/>
     <use x="520.605469" xlink:href="#DejaVuSans-109"/>
     <use x="618.017578" xlink:href="#DejaVuSans-101"/>
    </g>
   </g>
   <g id="text_8">
    <g id="patch_14">
     <path d="M 140.44694 311.682779 
L 246.28194 311.682779 
L 246.28194 295.940279 
L 140.44694 295.940279 
z
" style="fill:#ff0000;opacity:0.25;stroke:#000000;stroke-linejoin:miter;"/>
    </g>
    <!-- #makemoneyfromhome -->
    <defs>
     <path d="M 9.078125 75.984375 
L 18.109375 75.984375 
L 18.109375 31.109375 
L 44.921875 54.6875 
L 56.390625 54.6875 
L 27.390625 29.109375 
L 57.625 0 
L 45.90625 0 
L 18.109375 26.703125 
L 18.109375 0 
L 9.078125 0 
z
" id="DejaVuSans-107"/>
     <path d="M 54.890625 33.015625 
L 54.890625 0 
L 45.90625 0 
L 45.90625 32.71875 
Q 45.90625 40.484375 42.875 44.328125 
Q 39.84375 48.1875 33.796875 48.1875 
Q 26.515625 48.1875 22.3125 43.546875 
Q 18.109375 38.921875 18.109375 30.90625 
L 18.109375 0 
L 9.078125 0 
L 9.078125 54.6875 
L 18.109375 54.6875 
L 18.109375 46.1875 
Q 21.34375 51.125 25.703125 53.5625 
Q 30.078125 56 35.796875 56 
Q 45.21875 56 50.046875 50.171875 
Q 54.890625 44.34375 54.890625 33.015625 
z
" id="DejaVuSans-110"/>
    </defs>
    <g transform="translate(144.44694 306.019029)scale(0.08 -0.08)">
     <use xlink:href="#DejaVuSans-35"/>
     <use x="83.789062" xlink:href="#DejaVuSans-109"/>
     <use x="181.201172" xlink:href="#DejaVuSans-97"/>
     <use x="242.480469" xlink:href="#DejaVuSans-107"/>
     <use x="300.34375" xlink:href="#DejaVuSans-101"/>
     <use x="361.867188" xlink:href="#DejaVuSans-109"/>
     <use x="459.279297" xlink:href="#DejaVuSans-111"/>
     <use x="520.460938" xlink:href="#DejaVuSans-110"/>
     <use x="583.839844" xlink:href="#DejaVuSans-101"/>
     <use x="645.363281" xlink:href="#DejaVuSans-121"/>
     <use x="704.542969" xlink:href="#DejaVuSans-102"/>
     <use x="739.748047" xlink:href="#DejaVuSans-114"/>
     <use x="780.830078" xlink:href="#DejaVuSans-111"/>
     <use x="842.011719" xlink:href="#DejaVuSans-109"/>
     <use x="939.423828" xlink:href="#DejaVuSans-104"/>
     <use x="1002.802734" xlink:href="#DejaVuSans-111"/>
     <use x="1063.984375" xlink:href="#DejaVuSans-109"/>
     <use x="1161.396484" xlink:href="#DejaVuSans-101"/>
    </g>
   </g>
   <g id="text_9">
    <g id="patch_15">
     <path d="M 143.225378 270.686618 
L 212.726628 270.686618 
L 212.726628 254.944118 
L 143.225378 254.944118 
z
" style="fill:#ff0000;opacity:0.25;stroke:#000000;stroke-linejoin:miter;"/>
    </g>
    <!-- #rewarddollars -->
    <defs>
     <path d="M 4.203125 54.6875 
L 13.1875 54.6875 
L 24.421875 12.015625 
L 35.59375 54.6875 
L 46.1875 54.6875 
L 57.421875 12.015625 
L 68.609375 54.6875 
L 77.59375 54.6875 
L 63.28125 0 
L 52.6875 0 
L 40.921875 44.828125 
L 29.109375 0 
L 18.5 0 
z
" id="DejaVuSans-119"/>
     <path d="M 9.421875 75.984375 
L 18.40625 75.984375 
L 18.40625 0 
L 9.421875 0 
z
" id="DejaVuSans-108"/>
    </defs>
    <g transform="translate(147.225378 265.022868)scale(0.08 -0.08)">
     <use xlink:href="#DejaVuSans-35"/>
     <use x="83.789062" xlink:href="#DejaVuSans-114"/>
     <use x="124.871094" xlink:href="#DejaVuSans-101"/>
     <use x="186.394531" xlink:href="#DejaVuSans-119"/>
     <use x="268.181641" xlink:href="#DejaVuSans-97"/>
     <use x="329.460938" xlink:href="#DejaVuSans-114"/>
     <use x="370.558594" xlink:href="#DejaVuSans-100"/>
     <use x="434.035156" xlink:href="#DejaVuSans-100"/>
     <use x="497.511719" xlink:href="#DejaVuSans-111"/>
     <use x="558.693359" xlink:href="#DejaVuSans-108"/>
     <use x="586.476562" xlink:href="#DejaVuSans-108"/>
     <use x="614.259766" xlink:href="#DejaVuSans-97"/>
     <use x="675.539062" xlink:href="#DejaVuSans-114"/>
     <use x="716.652344" xlink:href="#DejaVuSans-115"/>
    </g>
   </g>
   <g id="text_10">
    <g id="patch_16">
     <path d="M 567.550069 185.776487 
L 617.826319 185.776487 
L 617.826319 170.033987 
L 567.550069 170.033987 
z
" style="fill:#ff0000;opacity:0.25;stroke:#000000;stroke-linejoin:miter;"/>
    </g>
    <!-- #StaySafe -->
    <g transform="translate(571.550069 180.112737)scale(0.08 -0.08)">
     <use xlink:href="#DejaVuSans-35"/>
     <use x="83.789062" xlink:href="#DejaVuSans-83"/>
     <use x="147.265625" xlink:href="#DejaVuSans-116"/>
     <use x="186.474609" xlink:href="#DejaVuSans-97"/>
     <use x="247.753906" xlink:href="#DejaVuSans-121"/>
     <use x="306.933594" xlink:href="#DejaVuSans-83"/>
     <use x="370.410156" xlink:href="#DejaVuSans-97"/>
     <use x="431.689453" xlink:href="#DejaVuSans-102"/>
     <use x="466.894531" xlink:href="#DejaVuSans-101"/>
    </g>
   </g>
   <g id="text_11">
    <g id="patch_17">
     <path d="M 628.629348 255.68855 
L 684.811848 255.68855 
L 684.811848 239.94605 
L 628.629348 239.94605 
z
" style="fill:#ff0000;opacity:0.25;stroke:#000000;stroke-linejoin:miter;"/>
    </g>
    <!-- #StayHome -->
    <g transform="translate(632.629348 250.0248)scale(0.08 -0.08)">
     <use xlink:href="#DejaVuSans-35"/>
     <use x="83.789062" xlink:href="#DejaVuSans-83"/>
     <use x="147.265625" xlink:href="#DejaVuSans-116"/>
     <use x="186.474609" xlink:href="#DejaVuSans-97"/>
     <use x="247.753906" xlink:href="#DejaVuSans-121"/>
     <use x="306.933594" xlink:href="#DejaVuSans-72"/>
     <use x="382.128906" xlink:href="#DejaVuSans-111"/>
     <use x="443.310547" xlink:href="#DejaVuSans-109"/>
     <use x="540.722656" xlink:href="#DejaVuSans-101"/>
    </g>
   </g>
   <g id="text_12">
    <g id="patch_18">
     <path d="M 592.832851 176.514121 
L 675.007851 176.514121 
L 675.007851 160.771621 
L 592.832851 160.771621 
z
" style="fill:#ff0000;opacity:0.25;stroke:#000000;stroke-linejoin:miter;"/>
    </g>
    <!-- #LaLigaSantander -->
    <defs>
     <path d="M 9.8125 72.90625 
L 19.671875 72.90625 
L 19.671875 8.296875 
L 55.171875 8.296875 
L 55.171875 0 
L 9.8125 0 
z
" id="DejaVuSans-76"/>
    </defs>
    <g transform="translate(596.832851 170.850371)scale(0.08 -0.08)">
     <use xlink:href="#DejaVuSans-35"/>
     <use x="83.789062" xlink:href="#DejaVuSans-76"/>
     <use x="139.501953" xlink:href="#DejaVuSans-97"/>
     <use x="200.78125" xlink:href="#DejaVuSans-76"/>
     <use x="256.494141" xlink:href="#DejaVuSans-105"/>
     <use x="284.277344" xlink:href="#DejaVuSans-103"/>
     <use x="347.753906" xlink:href="#DejaVuSans-97"/>
     <use x="409.033203" xlink:href="#DejaVuSans-83"/>
     <use x="472.509766" xlink:href="#DejaVuSans-97"/>
     <use x="533.789062" xlink:href="#DejaVuSans-110"/>
     <use x="597.167969" xlink:href="#DejaVuSans-116"/>
     <use x="636.376953" xlink:href="#DejaVuSans-97"/>
     <use x="697.65625" xlink:href="#DejaVuSans-110"/>
     <use x="761.035156" xlink:href="#DejaVuSans-100"/>
     <use x="824.511719" xlink:href="#DejaVuSans-101"/>
     <use x="886.035156" xlink:href="#DejaVuSans-114"/>
    </g>
   </g>
   <g id="text_13">
    <g id="patch_19">
     <path d="M 535.650259 79.787686 
L 599.871509 79.787686 
L 599.871509 64.045186 
L 535.650259 64.045186 
z
" style="fill:#ff0000;opacity:0.25;stroke:#000000;stroke-linejoin:miter;"/>
    </g>
    <!-- #StayatHome -->
    <g transform="translate(539.650259 74.123936)scale(0.08 -0.08)">
     <use xlink:href="#DejaVuSans-35"/>
     <use x="83.789062" xlink:href="#DejaVuSans-83"/>
     <use x="147.265625" xlink:href="#DejaVuSans-116"/>
     <use x="186.474609" xlink:href="#DejaVuSans-97"/>
     <use x="247.753906" xlink:href="#DejaVuSans-121"/>
     <use x="306.933594" xlink:href="#DejaVuSans-97"/>
     <use x="368.212891" xlink:href="#DejaVuSans-116"/>
     <use x="407.421875" xlink:href="#DejaVuSans-72"/>
     <use x="482.617188" xlink:href="#DejaVuSans-111"/>
     <use x="543.798828" xlink:href="#DejaVuSans-109"/>
     <use x="641.210938" xlink:href="#DejaVuSans-101"/>
    </g>
   </g>
   <g id="text_14">
    <g id="patch_20">
     <path d="M 599.153913 419.608545 
L 680.753913 419.608545 
L 680.753913 403.866045 
L 599.153913 403.866045 
z
" style="fill:#ff0000;opacity:0.25;stroke:#000000;stroke-linejoin:miter;"/>
    </g>
    <!-- #DisneySingalong -->
    <g transform="translate(603.153913 413.944795)scale(0.08 -0.08)">
     <use xlink:href="#DejaVuSans-35"/>
     <use x="83.789062" xlink:href="#DejaVuSans-68"/>
     <use x="160.791016" xlink:href="#DejaVuSans-105"/>
     <use x="188.574219" xlink:href="#DejaVuSans-115"/>
     <use x="240.673828" xlink:href="#DejaVuSans-110"/>
     <use x="304.052734" xlink:href="#DejaVuSans-101"/>
     <use x="365.576172" xlink:href="#DejaVuSans-121"/>
     <use x="424.755859" xlink:href="#DejaVuSans-83"/>
     <use x="488.232422" xlink:href="#DejaVuSans-105"/>
     <use x="516.015625" xlink:href="#DejaVuSans-110"/>
     <use x="579.394531" xlink:href="#DejaVuSans-103"/>
     <use x="642.871094" xlink:href="#DejaVuSans-97"/>
     <use x="704.150391" xlink:href="#DejaVuSans-108"/>
     <use x="731.933594" xlink:href="#DejaVuSans-111"/>
     <use x="793.115234" xlink:href="#DejaVuSans-110"/>
     <use x="856.494141" xlink:href="#DejaVuSans-103"/>
    </g>
   </g>
   <g id="text_15">
    <g id="patch_21">
     <path d="M 596.254362 345.273132 
L 645.964362 345.273132 
L 645.964362 329.530632 
L 596.254362 329.530632 
z
" style="fill:#ff0000;opacity:0.25;stroke:#000000;stroke-linejoin:miter;"/>
    </g>
    <!-- #Hercules -->
    <defs>
     <path d="M 8.5 21.578125 
L 8.5 54.6875 
L 17.484375 54.6875 
L 17.484375 21.921875 
Q 17.484375 14.15625 20.5 10.265625 
Q 23.53125 6.390625 29.59375 6.390625 
Q 36.859375 6.390625 41.078125 11.03125 
Q 45.3125 15.671875 45.3125 23.6875 
L 45.3125 54.6875 
L 54.296875 54.6875 
L 54.296875 0 
L 45.3125 0 
L 45.3125 8.40625 
Q 42.046875 3.421875 37.71875 1 
Q 33.40625 -1.421875 27.6875 -1.421875 
Q 18.265625 -1.421875 13.375 4.4375 
Q 8.5 10.296875 8.5 21.578125 
z
M 31.109375 56 
z
" id="DejaVuSans-117"/>
    </defs>
    <g transform="translate(600.254362 339.609382)scale(0.08 -0.08)">
     <use xlink:href="#DejaVuSans-35"/>
     <use x="83.789062" xlink:href="#DejaVuSans-72"/>
     <use x="158.984375" xlink:href="#DejaVuSans-101"/>
     <use x="220.507812" xlink:href="#DejaVuSans-114"/>
     <use x="261.589844" xlink:href="#DejaVuSans-99"/>
     <use x="316.570312" xlink:href="#DejaVuSans-117"/>
     <use x="379.949219" xlink:href="#DejaVuSans-108"/>
     <use x="407.732422" xlink:href="#DejaVuSans-101"/>
     <use x="469.255859" xlink:href="#DejaVuSans-115"/>
    </g>
   </g>
   <g id="text_16">
    <g id="patch_22">
     <path d="M 569.122387 323.399584 
L 621.561137 323.399584 
L 621.561137 307.657084 
L 569.122387 307.657084 
z
" style="fill:#ff0000;opacity:0.25;stroke:#000000;stroke-linejoin:miter;"/>
    </g>
    <!-- #lockdown -->
    <g transform="translate(573.122387 317.735834)scale(0.08 -0.08)">
     <use xlink:href="#DejaVuSans-35"/>
     <use x="83.789062" xlink:href="#DejaVuSans-108"/>
     <use x="111.572266" xlink:href="#DejaVuSans-111"/>
     <use x="172.753906" xlink:href="#DejaVuSans-99"/>
     <use x="227.734375" xlink:href="#DejaVuSans-107"/>
     <use x="285.644531" xlink:href="#DejaVuSans-100"/>
     <use x="349.121094" xlink:href="#DejaVuSans-111"/>
     <use x="410.302734" xlink:href="#DejaVuSans-119"/>
     <use x="492.089844" xlink:href="#DejaVuSans-110"/>
    </g>
   </g>
   <g id="text_17">
    <g id="patch_23">
     <path d="M 594.822595 144.409021 
L 653.037595 144.409021 
L 653.037595 128.666521 
L 594.822595 128.666521 
z
" style="fill:#ff0000;opacity:0.25;stroke:#000000;stroke-linejoin:miter;"/>
    </g>
    <!-- #OnThisDay -->
    <g transform="translate(598.822595 138.745271)scale(0.08 -0.08)">
     <use xlink:href="#DejaVuSans-35"/>
     <use x="83.789062" xlink:href="#DejaVuSans-79"/>
     <use x="162.5" xlink:href="#DejaVuSans-110"/>
     <use x="225.878906" xlink:href="#DejaVuSans-84"/>
     <use x="286.962891" xlink:href="#DejaVuSans-104"/>
     <use x="350.341797" xlink:href="#DejaVuSans-105"/>
     <use x="378.125" xlink:href="#DejaVuSans-115"/>
     <use x="430.224609" xlink:href="#DejaVuSans-68"/>
     <use x="507.226562" xlink:href="#DejaVuSans-97"/>
     <use x="568.505859" xlink:href="#DejaVuSans-121"/>
    </g>
   </g>
   <g id="text_18">
    <g id="patch_24">
     <path d="M 192.177102 312.999047 
L 260.494602 312.999047 
L 260.494602 297.256547 
L 192.177102 297.256547 
z
" style="fill:#ff0000;opacity:0.25;stroke:#000000;stroke-linejoin:miter;"/>
    </g>
    <!-- #montypython -->
    <g transform="translate(196.177102 307.335297)scale(0.08 -0.08)">
     <use xlink:href="#DejaVuSans-35"/>
     <use x="83.789062" xlink:href="#DejaVuSans-109"/>
     <use x="181.201172" xlink:href="#DejaVuSans-111"/>
     <use x="242.382812" xlink:href="#DejaVuSans-110"/>
     <use x="305.761719" xlink:href="#DejaVuSans-116"/>
     <use x="344.970703" xlink:href="#DejaVuSans-121"/>
     <use x="404.150391" xlink:href="#DejaVuSans-112"/>
     <use x="467.626953" xlink:href="#DejaVuSans-121"/>
     <use x="526.806641" xlink:href="#DejaVuSans-116"/>
     <use x="566.015625" xlink:href="#DejaVuSans-104"/>
     <use x="629.394531" xlink:href="#DejaVuSans-111"/>
     <use x="690.576172" xlink:href="#DejaVuSans-110"/>
    </g>
   </g>
   <g id="text_19">
    <g id="patch_25">
     <path d="M 526.808845 200.984134 
L 588.443845 200.984134 
L 588.443845 185.241634 
L 526.808845 185.241634 
z
" style="fill:#ff0000;opacity:0.25;stroke:#000000;stroke-linejoin:miter;"/>
    </g>
    <!-- #coronavirus -->
    <defs>
     <path d="M 2.984375 54.6875 
L 12.5 54.6875 
L 29.59375 8.796875 
L 46.6875 54.6875 
L 56.203125 54.6875 
L 35.6875 0 
L 23.484375 0 
z
" id="DejaVuSans-118"/>
    </defs>
    <g transform="translate(530.808845 195.320384)scale(0.08 -0.08)">
     <use xlink:href="#DejaVuSans-35"/>
     <use x="83.789062" xlink:href="#DejaVuSans-99"/>
     <use x="138.769531" xlink:href="#DejaVuSans-111"/>
     <use x="199.951172" xlink:href="#DejaVuSans-114"/>
     <use x="241.033203" xlink:href="#DejaVuSans-111"/>
     <use x="302.214844" xlink:href="#DejaVuSans-110"/>
     <use x="365.59375" xlink:href="#DejaVuSans-97"/>
     <use x="426.873047" xlink:href="#DejaVuSans-118"/>
     <use x="486.052734" xlink:href="#DejaVuSans-105"/>
     <use x="513.835938" xlink:href="#DejaVuSans-114"/>
     <use x="554.949219" xlink:href="#DejaVuSans-117"/>
     <use x="618.328125" xlink:href="#DejaVuSans-115"/>
    </g>
   </g>
   <g id="text_20">
    <g id="patch_26">
     <path d="M 508.939483 283.997704 
L 570.250733 283.997704 
L 570.250733 268.255204 
L 508.939483 268.255204 
z
" style="fill:#ff0000;opacity:0.25;stroke:#000000;stroke-linejoin:miter;"/>
    </g>
    <!-- #COVID19SA -->
    <g transform="translate(512.939483 278.333954)scale(0.08 -0.08)">
     <use xlink:href="#DejaVuSans-35"/>
     <use x="83.789062" xlink:href="#DejaVuSans-67"/>
     <use x="153.613281" xlink:href="#DejaVuSans-79"/>
     <use x="232.308594" xlink:href="#DejaVuSans-86"/>
     <use x="300.716797" xlink:href="#DejaVuSans-73"/>
     <use x="330.208984" xlink:href="#DejaVuSans-68"/>
     <use x="407.210938" xlink:href="#DejaVuSans-49"/>
     <use x="470.833984" xlink:href="#DejaVuSans-57"/>
     <use x="534.457031" xlink:href="#DejaVuSans-83"/>
     <use x="597.949219" xlink:href="#DejaVuSans-65"/>
    </g>
   </g>
   <g id="text_21">
    <g id="patch_27">
     <path d="M 139.390228 400.330858 
L 187.843978 400.330858 
L 187.843978 384.588358 
L 139.390228 384.588358 
z
" style="fill:#ff0000;opacity:0.25;stroke:#000000;stroke-linejoin:miter;"/>
    </g>
    <!-- #staysafe -->
    <g transform="translate(143.390228 394.667108)scale(0.08 -0.08)">
     <use xlink:href="#DejaVuSans-35"/>
     <use x="83.789062" xlink:href="#DejaVuSans-115"/>
     <use x="135.888672" xlink:href="#DejaVuSans-116"/>
     <use x="175.097656" xlink:href="#DejaVuSans-97"/>
     <use x="236.376953" xlink:href="#DejaVuSans-121"/>
     <use x="295.556641" xlink:href="#DejaVuSans-115"/>
     <use x="347.65625" xlink:href="#DejaVuSans-97"/>
     <use x="408.935547" xlink:href="#DejaVuSans-102"/>
     <use x="444.140625" xlink:href="#DejaVuSans-101"/>
    </g>
   </g>
   <g id="text_22">
    <g id="patch_28">
     <path d="M 622.730826 303.478446 
L 670.132076 303.478446 
L 670.132076 287.735946 
L 622.730826 287.735946 
z
" style="fill:#ff0000;opacity:0.25;stroke:#000000;stroke-linejoin:miter;"/>
    </g>
    <!-- #Covid19 -->
    <g transform="translate(626.730826 297.814696)scale(0.08 -0.08)">
     <use xlink:href="#DejaVuSans-35"/>
     <use x="83.789062" xlink:href="#DejaVuSans-67"/>
     <use x="153.613281" xlink:href="#DejaVuSans-111"/>
     <use x="214.794922" xlink:href="#DejaVuSans-118"/>
     <use x="273.974609" xlink:href="#DejaVuSans-105"/>
     <use x="301.757812" xlink:href="#DejaVuSans-100"/>
     <use x="365.234375" xlink:href="#DejaVuSans-49"/>
     <use x="428.857422" xlink:href="#DejaVuSans-57"/>
    </g>
   </g>
   <g id="text_23">
    <g id="patch_29">
     <path d="M 636.475228 203.031687 
L 685.402728 203.031687 
L 685.402728 187.289187 
L 636.475228 187.289187 
z
" style="fill:#ff0000;opacity:0.25;stroke:#000000;stroke-linejoin:miter;"/>
    </g>
    <!-- #TvSeries -->
    <g transform="translate(640.475228 197.367937)scale(0.08 -0.08)">
     <use xlink:href="#DejaVuSans-35"/>
     <use x="83.789062" xlink:href="#DejaVuSans-84"/>
     <use x="144.873047" xlink:href="#DejaVuSans-118"/>
     <use x="204.052734" xlink:href="#DejaVuSans-83"/>
     <use x="267.529297" xlink:href="#DejaVuSans-101"/>
     <use x="329.052734" xlink:href="#DejaVuSans-114"/>
     <use x="370.166016" xlink:href="#DejaVuSans-105"/>
     <use x="397.949219" xlink:href="#DejaVuSans-101"/>
     <use x="459.472656" xlink:href="#DejaVuSans-115"/>
    </g>
   </g>
   <g id="text_24">
    <g id="patch_30">
     <path d="M 516.447964 170.51148 
L 557.026714 170.51148 
L 557.026714 154.76898 
L 516.447964 154.76898 
z
" style="fill:#ff0000;opacity:0.25;stroke:#000000;stroke-linejoin:miter;"/>
    </g>
    <!-- #COVID -->
    <g transform="translate(520.447964 164.84773)scale(0.08 -0.08)">
     <use xlink:href="#DejaVuSans-35"/>
     <use x="83.789062" xlink:href="#DejaVuSans-67"/>
     <use x="153.613281" xlink:href="#DejaVuSans-79"/>
     <use x="232.308594" xlink:href="#DejaVuSans-86"/>
     <use x="300.716797" xlink:href="#DejaVuSans-73"/>
     <use x="330.208984" xlink:href="#DejaVuSans-68"/>
    </g>
   </g>
  </g>
 </g>
 <defs>
  <clipPath id="p052106c363">
   <rect height="434.88" width="558" x="90" y="69.12"/>
  </clipPath>
 </defs>
</svg>
